<mxfile host="Electron" modified="2023-09-10T23:16:44.008Z" agent="Mozilla/5.0 (Windows NT 10.0; Win64; x64) AppleWebKit/537.36 (KHTML, like Gecko) draw.io/21.6.8 Chrome/114.0.5735.289 Electron/25.5.0 Safari/537.36" etag="F8HTg-mbVEa9ZATcKg6Z" version="21.6.8" type="device" pages="2">
  <diagram name="Page-1" id="w8OEh-b5tr4eHxsXMVm0">
    <mxGraphModel dx="1595" dy="697" grid="0" gridSize="10" guides="1" tooltips="1" connect="1" arrows="1" fold="1" page="0" pageScale="1" pageWidth="850" pageHeight="1100" math="0" shadow="0">
      <root>
        <mxCell id="0" />
        <mxCell id="1" parent="0" />
        <mxCell id="kXdAKgS794k63JZqeaJi-37" value="VPC" style="points=[[0,0],[0.25,0],[0.5,0],[0.75,0],[1,0],[1,0.25],[1,0.5],[1,0.75],[1,1],[0.75,1],[0.5,1],[0.25,1],[0,1],[0,0.75],[0,0.5],[0,0.25]];outlineConnect=0;gradientColor=none;html=1;whiteSpace=wrap;fontSize=12;fontStyle=0;container=1;pointerEvents=0;collapsible=0;recursiveResize=0;shape=mxgraph.aws4.group;grIcon=mxgraph.aws4.group_vpc;strokeColor=#248814;fillColor=none;verticalAlign=top;align=left;spacingLeft=30;fontColor=#AAB7B8;dashed=0;" parent="1" vertex="1">
          <mxGeometry x="-160" y="400" width="640" height="500" as="geometry" />
        </mxCell>
        <mxCell id="kXdAKgS794k63JZqeaJi-6" value="Availability Zone A" style="fillColor=none;strokeColor=#147EBA;dashed=1;verticalAlign=top;fontStyle=0;fontColor=#147EBA;whiteSpace=wrap;html=1;" parent="1" vertex="1">
          <mxGeometry x="-120" y="440" width="160" height="440" as="geometry" />
        </mxCell>
        <mxCell id="kXdAKgS794k63JZqeaJi-7" value="Availability Zone B" style="fillColor=none;strokeColor=#147EBA;dashed=1;verticalAlign=top;fontStyle=0;fontColor=#147EBA;whiteSpace=wrap;html=1;" parent="1" vertex="1">
          <mxGeometry x="80" y="440" width="160" height="440" as="geometry" />
        </mxCell>
        <mxCell id="kXdAKgS794k63JZqeaJi-5" value="Availability Zone C" style="fillColor=none;strokeColor=#147EBA;dashed=1;verticalAlign=top;fontStyle=0;fontColor=#147EBA;whiteSpace=wrap;html=1;" parent="1" vertex="1">
          <mxGeometry x="280" y="440" width="160" height="440" as="geometry" />
        </mxCell>
        <mxCell id="kXdAKgS794k63JZqeaJi-4" value="Private subnet 1" style="points=[[0,0],[0.25,0],[0.5,0],[0.75,0],[1,0],[1,0.25],[1,0.5],[1,0.75],[1,1],[0.75,1],[0.5,1],[0.25,1],[0,1],[0,0.75],[0,0.5],[0,0.25]];outlineConnect=0;gradientColor=none;html=1;whiteSpace=wrap;fontSize=12;fontStyle=0;container=1;pointerEvents=0;collapsible=0;recursiveResize=0;shape=mxgraph.aws4.group;grIcon=mxgraph.aws4.group_security_group;grStroke=0;strokeColor=#147EBA;fillColor=#E6F2F8;verticalAlign=top;align=left;spacingLeft=30;fontColor=#147EBA;dashed=0;" parent="1" vertex="1">
          <mxGeometry x="-105" y="650" width="130" height="210" as="geometry" />
        </mxCell>
        <mxCell id="kXdAKgS794k63JZqeaJi-10" value="Private subnet 2" style="points=[[0,0],[0.25,0],[0.5,0],[0.75,0],[1,0],[1,0.25],[1,0.5],[1,0.75],[1,1],[0.75,1],[0.5,1],[0.25,1],[0,1],[0,0.75],[0,0.5],[0,0.25]];outlineConnect=0;gradientColor=none;html=1;whiteSpace=wrap;fontSize=12;fontStyle=0;container=1;pointerEvents=0;collapsible=0;recursiveResize=0;shape=mxgraph.aws4.group;grIcon=mxgraph.aws4.group_security_group;grStroke=0;strokeColor=#147EBA;fillColor=#E6F2F8;verticalAlign=top;align=left;spacingLeft=30;fontColor=#147EBA;dashed=0;" parent="1" vertex="1">
          <mxGeometry x="95" y="650" width="130" height="210" as="geometry" />
        </mxCell>
        <mxCell id="kXdAKgS794k63JZqeaJi-11" value="Private subnet 3" style="points=[[0,0],[0.25,0],[0.5,0],[0.75,0],[1,0],[1,0.25],[1,0.5],[1,0.75],[1,1],[0.75,1],[0.5,1],[0.25,1],[0,1],[0,0.75],[0,0.5],[0,0.25]];outlineConnect=0;gradientColor=none;html=1;whiteSpace=wrap;fontSize=12;fontStyle=0;container=1;pointerEvents=0;collapsible=0;recursiveResize=0;shape=mxgraph.aws4.group;grIcon=mxgraph.aws4.group_security_group;grStroke=0;strokeColor=#147EBA;fillColor=#E6F2F8;verticalAlign=top;align=left;spacingLeft=30;fontColor=#147EBA;dashed=0;" parent="1" vertex="1">
          <mxGeometry x="295" y="650" width="130" height="210" as="geometry" />
        </mxCell>
        <mxCell id="kXdAKgS794k63JZqeaJi-28" style="edgeStyle=orthogonalEdgeStyle;rounded=0;orthogonalLoop=1;jettySize=auto;html=1;strokeWidth=2;endArrow=block;endFill=1;" parent="1" source="kXdAKgS794k63JZqeaJi-12" target="kXdAKgS794k63JZqeaJi-4" edge="1">
          <mxGeometry relative="1" as="geometry" />
        </mxCell>
        <mxCell id="kXdAKgS794k63JZqeaJi-12" value="Public subnet 1" style="points=[[0,0],[0.25,0],[0.5,0],[0.75,0],[1,0],[1,0.25],[1,0.5],[1,0.75],[1,1],[0.75,1],[0.5,1],[0.25,1],[0,1],[0,0.75],[0,0.5],[0,0.25]];outlineConnect=0;gradientColor=none;html=1;whiteSpace=wrap;fontSize=12;fontStyle=0;container=1;pointerEvents=0;collapsible=0;recursiveResize=0;shape=mxgraph.aws4.group;grIcon=mxgraph.aws4.group_security_group;grStroke=0;strokeColor=#248814;fillColor=#E9F3E6;verticalAlign=top;align=left;spacingLeft=30;fontColor=#248814;dashed=0;" parent="1" vertex="1">
          <mxGeometry x="-105" y="490" width="130" height="130" as="geometry" />
        </mxCell>
        <mxCell id="kXdAKgS794k63JZqeaJi-13" value="Public subnet 2" style="points=[[0,0],[0.25,0],[0.5,0],[0.75,0],[1,0],[1,0.25],[1,0.5],[1,0.75],[1,1],[0.75,1],[0.5,1],[0.25,1],[0,1],[0,0.75],[0,0.5],[0,0.25]];outlineConnect=0;gradientColor=none;html=1;whiteSpace=wrap;fontSize=12;fontStyle=0;container=1;pointerEvents=0;collapsible=0;recursiveResize=0;shape=mxgraph.aws4.group;grIcon=mxgraph.aws4.group_security_group;grStroke=0;strokeColor=#248814;fillColor=#E9F3E6;verticalAlign=top;align=left;spacingLeft=30;fontColor=#248814;dashed=0;" parent="1" vertex="1">
          <mxGeometry x="95" y="490" width="130" height="130" as="geometry" />
        </mxCell>
        <mxCell id="kXdAKgS794k63JZqeaJi-14" value="Public subnet 3" style="points=[[0,0],[0.25,0],[0.5,0],[0.75,0],[1,0],[1,0.25],[1,0.5],[1,0.75],[1,1],[0.75,1],[0.5,1],[0.25,1],[0,1],[0,0.75],[0,0.5],[0,0.25]];outlineConnect=0;gradientColor=none;html=1;whiteSpace=wrap;fontSize=12;fontStyle=0;container=1;pointerEvents=0;collapsible=0;recursiveResize=0;shape=mxgraph.aws4.group;grIcon=mxgraph.aws4.group_security_group;grStroke=0;strokeColor=#248814;fillColor=#E9F3E6;verticalAlign=top;align=left;spacingLeft=30;fontColor=#248814;dashed=0;" parent="1" vertex="1">
          <mxGeometry x="295" y="490" width="130" height="130" as="geometry" />
        </mxCell>
        <mxCell id="kXdAKgS794k63JZqeaJi-3" value="Auto Scaling group" style="points=[[0,0],[0.25,0],[0.5,0],[0.75,0],[1,0],[1,0.25],[1,0.5],[1,0.75],[1,1],[0.75,1],[0.5,1],[0.25,1],[0,1],[0,0.75],[0,0.5],[0,0.25]];outlineConnect=0;gradientColor=none;html=1;whiteSpace=wrap;fontSize=12;fontStyle=0;container=1;pointerEvents=0;collapsible=0;recursiveResize=0;shape=mxgraph.aws4.groupCenter;grIcon=mxgraph.aws4.group_auto_scaling_group;grStroke=1;strokeColor=#D86613;fillColor=none;verticalAlign=top;align=center;fontColor=#D86613;dashed=1;spacingTop=25;" parent="1" vertex="1">
          <mxGeometry x="-140" y="690" width="600" height="140" as="geometry" />
        </mxCell>
        <mxCell id="kXdAKgS794k63JZqeaJi-25" value="" style="outlineConnect=0;dashed=0;verticalLabelPosition=bottom;verticalAlign=top;align=center;html=1;shape=mxgraph.aws3.instances;fillColor=#F58534;gradientColor=none;" parent="kXdAKgS794k63JZqeaJi-3" vertex="1">
          <mxGeometry x="276.19" y="70" width="47.62" height="50" as="geometry" />
        </mxCell>
        <mxCell id="kXdAKgS794k63JZqeaJi-26" value="" style="outlineConnect=0;dashed=0;verticalLabelPosition=bottom;verticalAlign=top;align=center;html=1;shape=mxgraph.aws3.instances;fillColor=#F58534;gradientColor=none;" parent="kXdAKgS794k63JZqeaJi-3" vertex="1">
          <mxGeometry x="476.19" y="70" width="47.62" height="50" as="geometry" />
        </mxCell>
        <mxCell id="kXdAKgS794k63JZqeaJi-23" value="" style="outlineConnect=0;dashed=0;verticalLabelPosition=bottom;verticalAlign=top;align=center;html=1;shape=mxgraph.aws3.instances;fillColor=#F58534;gradientColor=none;" parent="1" vertex="1">
          <mxGeometry x="-63.81" y="760" width="47.62" height="50" as="geometry" />
        </mxCell>
        <mxCell id="kXdAKgS794k63JZqeaJi-30" style="edgeStyle=orthogonalEdgeStyle;rounded=0;orthogonalLoop=1;jettySize=auto;html=1;strokeWidth=2;endArrow=block;endFill=1;" parent="1" source="kXdAKgS794k63JZqeaJi-13" target="kXdAKgS794k63JZqeaJi-10" edge="1">
          <mxGeometry relative="1" as="geometry">
            <mxPoint x="-30" y="630" as="sourcePoint" />
            <mxPoint x="-30" y="660" as="targetPoint" />
          </mxGeometry>
        </mxCell>
        <mxCell id="kXdAKgS794k63JZqeaJi-31" style="edgeStyle=orthogonalEdgeStyle;rounded=0;orthogonalLoop=1;jettySize=auto;html=1;strokeWidth=2;endArrow=block;endFill=1;" parent="1" source="kXdAKgS794k63JZqeaJi-14" target="kXdAKgS794k63JZqeaJi-11" edge="1">
          <mxGeometry relative="1" as="geometry">
            <mxPoint x="170" y="630" as="sourcePoint" />
            <mxPoint x="170" y="660" as="targetPoint" />
          </mxGeometry>
        </mxCell>
        <mxCell id="kXdAKgS794k63JZqeaJi-32" value="NLB" style="fillColor=#6a00ff;strokeColor=#3700CC;dashed=1;verticalAlign=top;fontStyle=0;fontColor=#ffffff;whiteSpace=wrap;html=1;fillOpacity=50;" parent="1" vertex="1">
          <mxGeometry x="-140" y="540" width="600" height="60" as="geometry" />
        </mxCell>
        <mxCell id="kXdAKgS794k63JZqeaJi-20" value="" style="sketch=0;points=[[0,0,0],[0.25,0,0],[0.5,0,0],[0.75,0,0],[1,0,0],[0,1,0],[0.25,1,0],[0.5,1,0],[0.75,1,0],[1,1,0],[0,0.25,0],[0,0.5,0],[0,0.75,0],[1,0.25,0],[1,0.5,0],[1,0.75,0]];outlineConnect=0;fontColor=#232F3E;gradientColor=#945DF2;gradientDirection=north;fillColor=#5A30B5;strokeColor=#ffffff;dashed=0;verticalLabelPosition=bottom;verticalAlign=top;align=center;html=1;fontSize=12;fontStyle=0;aspect=fixed;shape=mxgraph.aws4.resourceIcon;resIcon=mxgraph.aws4.elastic_load_balancing;" parent="1" vertex="1">
          <mxGeometry x="145" y="560" width="30" height="30" as="geometry" />
        </mxCell>
        <mxCell id="kXdAKgS794k63JZqeaJi-38" value="" style="outlineConnect=0;dashed=0;verticalLabelPosition=bottom;verticalAlign=top;align=center;html=1;shape=mxgraph.aws3.internet_gateway;fillColor=#F58534;gradientColor=none;" parent="1" vertex="1">
          <mxGeometry x="144.33" y="380" width="30.67" height="32" as="geometry" />
        </mxCell>
      </root>
    </mxGraphModel>
  </diagram>
  <diagram id="ssJKJ2pLLbYHVgfSxsXm" name="Page-2">
    <mxGraphModel dx="989" dy="577" grid="0" gridSize="10" guides="1" tooltips="1" connect="1" arrows="1" fold="1" page="0" pageScale="1" pageWidth="850" pageHeight="1100" math="0" shadow="0">
      <root>
        <mxCell id="0" />
        <mxCell id="1" parent="0" />
        <mxCell id="y0EWeAeJNZgZqKKUUFFy-14" value="VPC" style="points=[[0,0],[0.25,0],[0.5,0],[0.75,0],[1,0],[1,0.25],[1,0.5],[1,0.75],[1,1],[0.75,1],[0.5,1],[0.25,1],[0,1],[0,0.75],[0,0.5],[0,0.25]];outlineConnect=0;gradientColor=none;html=1;whiteSpace=wrap;fontSize=12;fontStyle=0;container=1;pointerEvents=0;collapsible=0;recursiveResize=0;shape=mxgraph.aws4.group;grIcon=mxgraph.aws4.group_vpc;strokeColor=#248814;fillColor=none;verticalAlign=top;align=left;spacingLeft=30;fontColor=#AAB7B8;dashed=0;" vertex="1" parent="1">
          <mxGeometry x="40" y="184" width="760" height="306" as="geometry" />
        </mxCell>
        <mxCell id="y0EWeAeJNZgZqKKUUFFy-5" value="NLB Subnet" style="sketch=0;outlineConnect=0;gradientColor=none;html=1;whiteSpace=wrap;fontSize=12;fontStyle=0;shape=mxgraph.aws4.group;grIcon=mxgraph.aws4.group_subnet;strokeColor=#E8E8E8;fillColor=none;verticalAlign=top;align=left;spacingLeft=30;fontColor=#E8E8E8;dashed=0;" vertex="1" parent="y0EWeAeJNZgZqKKUUFFy-14">
          <mxGeometry x="580" y="36" width="150" height="240" as="geometry" />
        </mxCell>
        <mxCell id="y0EWeAeJNZgZqKKUUFFy-7" value="Network&lt;br&gt;Load Balancer" style="sketch=0;outlineConnect=0;fontColor=#FFFFFF;gradientColor=none;fillColor=#9933FF;strokeColor=none;dashed=0;verticalLabelPosition=bottom;verticalAlign=top;align=center;html=1;fontSize=12;fontStyle=1;aspect=fixed;pointerEvents=1;shape=mxgraph.aws4.network_load_balancer;" vertex="1" parent="y0EWeAeJNZgZqKKUUFFy-14">
          <mxGeometry x="616" y="127" width="78" height="78" as="geometry" />
        </mxCell>
        <mxCell id="y0EWeAeJNZgZqKKUUFFy-3" value="Private Subnet" style="sketch=0;outlineConnect=0;gradientColor=none;html=1;whiteSpace=wrap;fontSize=12;fontStyle=0;shape=mxgraph.aws4.group;grIcon=mxgraph.aws4.group_subnet;strokeColor=#E8E8E8;fillColor=none;verticalAlign=top;align=left;spacingLeft=30;fontColor=#E8E8E8;dashed=0;" vertex="1" parent="1">
          <mxGeometry x="70" y="220" width="490" height="240" as="geometry" />
        </mxCell>
        <mxCell id="y0EWeAeJNZgZqKKUUFFy-9" value="Security Group" style="fontStyle=0;verticalAlign=top;align=center;spacingTop=-2;fillColor=none;rounded=0;whiteSpace=wrap;html=1;strokeColor=#FF0000;strokeWidth=2;dashed=1;container=1;collapsible=0;expand=0;recursiveResize=0;" vertex="1" parent="1">
          <mxGeometry x="240" y="270" width="105.5" height="160" as="geometry" />
        </mxCell>
        <mxCell id="y0EWeAeJNZgZqKKUUFFy-17" value="VPC Endpoint" style="sketch=0;outlineConnect=0;fontColor=#FFFFFF;gradientColor=none;fillColor=#9933FF;strokeColor=none;dashed=0;verticalLabelPosition=bottom;verticalAlign=top;align=center;html=1;fontSize=12;fontStyle=1;aspect=fixed;pointerEvents=1;shape=mxgraph.aws4.endpoints;" vertex="1" parent="y0EWeAeJNZgZqKKUUFFy-9">
          <mxGeometry x="22.75" y="50" width="60" height="60" as="geometry" />
        </mxCell>
        <mxCell id="y0EWeAeJNZgZqKKUUFFy-12" style="edgeStyle=orthogonalEdgeStyle;rounded=0;orthogonalLoop=1;jettySize=auto;html=1;endArrow=block;endFill=1;strokeWidth=2;" edge="1" parent="1" source="y0EWeAeJNZgZqKKUUFFy-10" target="y0EWeAeJNZgZqKKUUFFy-17">
          <mxGeometry relative="1" as="geometry" />
        </mxCell>
        <mxCell id="y0EWeAeJNZgZqKKUUFFy-10" value="EC2 Instance&lt;br&gt;Jump Server" style="outlineConnect=0;dashed=0;verticalLabelPosition=bottom;verticalAlign=top;align=center;html=1;shape=mxgraph.aws3.instance;fillColor=#F58534;gradientColor=none;fontStyle=1" vertex="1" parent="1">
          <mxGeometry x="120" y="318.5" width="60" height="63" as="geometry" />
        </mxCell>
        <mxCell id="y0EWeAeJNZgZqKKUUFFy-11" value="" style="sketch=0;outlineConnect=0;fontColor=#232F3E;gradientColor=none;fillColor=#D45B07;strokeColor=none;dashed=0;verticalLabelPosition=bottom;verticalAlign=top;align=center;html=1;fontSize=12;fontStyle=0;aspect=fixed;pointerEvents=1;shape=mxgraph.aws4.t4g_instance;" vertex="1" parent="1">
          <mxGeometry x="126" y="326" width="48" height="48" as="geometry" />
        </mxCell>
        <mxCell id="y0EWeAeJNZgZqKKUUFFy-13" value="endpoint connection" style="edgeStyle=orthogonalEdgeStyle;rounded=0;orthogonalLoop=1;jettySize=auto;html=1;endArrow=block;endFill=1;strokeWidth=2;labelPosition=center;verticalLabelPosition=top;align=center;verticalAlign=bottom;" edge="1" parent="1" source="y0EWeAeJNZgZqKKUUFFy-17" target="y0EWeAeJNZgZqKKUUFFy-18">
          <mxGeometry relative="1" as="geometry">
            <mxPoint x="190" y="360" as="sourcePoint" />
            <mxPoint x="450" y="350" as="targetPoint" />
          </mxGeometry>
        </mxCell>
        <mxCell id="y0EWeAeJNZgZqKKUUFFy-15" style="edgeStyle=orthogonalEdgeStyle;rounded=0;orthogonalLoop=1;jettySize=auto;html=1;endArrow=block;endFill=1;strokeWidth=2;" edge="1" parent="1" source="y0EWeAeJNZgZqKKUUFFy-18" target="y0EWeAeJNZgZqKKUUFFy-7">
          <mxGeometry relative="1" as="geometry">
            <mxPoint x="519.0000000000002" y="350.0000000000002" as="sourcePoint" />
            <mxPoint x="460" y="360" as="targetPoint" />
          </mxGeometry>
        </mxCell>
        <mxCell id="y0EWeAeJNZgZqKKUUFFy-18" value="VPC Endpoint&lt;br&gt;Service&lt;br&gt;(Private DNS)" style="sketch=0;outlineConnect=0;fontColor=#FFFFFF;gradientColor=none;fillColor=#9933FF;strokeColor=none;dashed=0;verticalLabelPosition=bottom;verticalAlign=top;align=center;html=1;fontSize=12;fontStyle=1;aspect=fixed;pointerEvents=1;shape=mxgraph.aws4.endpoints;" vertex="1" parent="1">
          <mxGeometry x="450" y="320" width="60" height="60" as="geometry" />
        </mxCell>
      </root>
    </mxGraphModel>
  </diagram>
</mxfile>
